<svg version="1.2" xmlns="http://www.w3.org/2000/svg" viewBox="373 23 425 454" width="425" height="454">
	<title>2211</title>
	<defs>
		<linearGradient id="g1" x2="1" gradientUnits="userSpaceOnUse" gradientTransform="matrix(0,-94.078,51.764,0,571.092,425.945)">
			<stop offset="0" stop-color="#7b0f26"/>
			<stop offset="1" stop-color="#c23333"/>
		</linearGradient>
		<radialGradient id="g2" cx="0" cy="0" r="1" gradientUnits="userSpaceOnUse" gradientTransform="matrix(67.776,0,0,67.776,596.445,425.152)">
			<stop offset="0" stop-color="#b307b9"/>
			<stop offset="1" stop-color="#ba4ad6"/>
		</radialGradient>
		<linearGradient id="g3" x2="1" gradientUnits="userSpaceOnUse" gradientTransform="matrix(0,-64.265,-104.853,0,554.701,291.32)">
			<stop offset="0" stop-color="#770c25"/>
			<stop offset="1" stop-color="#c2313b"/>
		</linearGradient>
		<linearGradient id="g4" x2="1" gradientUnits="userSpaceOnUse" gradientTransform="matrix(0,-38.224,-53.723,0,527.402,274.376)">
			<stop offset="0" stop-color="#ffe9da"/>
			<stop offset=".994" stop-color="#b44cf3"/>
		</linearGradient>
		<linearGradient id="g5" x2="1" gradientUnits="userSpaceOnUse" gradientTransform="matrix(0,-28.378,-46.066,0,528.432,273.514)">
			<stop offset="0" stop-color="#ffe9da"/>
			<stop offset=".994" stop-color="#b44cf3"/>
		</linearGradient>
		<linearGradient id="g6" x2="1" gradientUnits="userSpaceOnUse" gradientTransform="matrix(0,-64.265,104.853,0,642.195,291.32)">
			<stop offset="0" stop-color="#770c25"/>
			<stop offset="1" stop-color="#c2313b"/>
		</linearGradient>
		<linearGradient id="g7" x2="1" gradientUnits="userSpaceOnUse" gradientTransform="matrix(0,-38.224,53.723,0,669.494,275.108)">
			<stop offset="0" stop-color="#ffe9da"/>
			<stop offset=".994" stop-color="#b44cf3"/>
		</linearGradient>
		<linearGradient id="g8" x2="1" gradientUnits="userSpaceOnUse" gradientTransform="matrix(0,-28.378,46.066,0,668.465,274.247)">
			<stop offset="0" stop-color="#ffe9da"/>
			<stop offset=".994" stop-color="#b44cf3"/>
		</linearGradient>
		<linearGradient id="g9" x2="1" gradientUnits="userSpaceOnUse" gradientTransform="matrix(0,-238.585,316.292,0,440.302,352.508)">
			<stop offset="0" stop-color="#c43e3a"/>
			<stop offset=".103" stop-color="#c63646"/>
			<stop offset=".581" stop-color="#af2639"/>
			<stop offset="1" stop-color="#c33b31"/>
		</linearGradient>
		<linearGradient id="g10" x2="1" gradientUnits="userSpaceOnUse" gradientTransform="matrix(0,-181.09,506.984,0,402.599,330.598)">
			<stop offset="0" stop-color="#ffe9da"/>
			<stop offset=".994" stop-color="#b44cf3"/>
		</linearGradient>
		<linearGradient id="g11" x2="1" gradientUnits="userSpaceOnUse" gradientTransform="matrix(0,-184.775,509.29,0,287.337,330.868)">
			<stop offset="0" stop-color="#ffe9da"/>
			<stop offset=".994" stop-color="#b44cf3"/>
		</linearGradient>
		<linearGradient id="g12" x2="1" gradientUnits="userSpaceOnUse" gradientTransform="matrix(11.059,-20.063,26.843,14.797,533.175,294.157)">
			<stop offset="0" stop-color="#000000"/>
			<stop offset="1" stop-color="#ff8f29"/>
		</linearGradient>
		<linearGradient id="g13" x2="1" gradientUnits="userSpaceOnUse" gradientTransform="matrix(37.385,0,0,31.641,543.796,394.304)">
			<stop offset=".006" stop-color="#ce77f1"/>
			<stop offset="1" stop-color="#ffe7d8"/>
		</linearGradient>
		<linearGradient id="g14" x2="1" gradientUnits="userSpaceOnUse" gradientTransform="matrix(14.797,0,0,30.421,632.78,395.524)">
			<stop offset=".006" stop-color="#ce77f1"/>
			<stop offset="1" stop-color="#ffe7d8"/>
		</linearGradient>
		<linearGradient id="g15" x2="1" gradientUnits="userSpaceOnUse" gradientTransform="matrix(0,-13.27,2.8,0,595.055,348.986)">
			<stop offset=".006" stop-color="#ce77f1"/>
			<stop offset="1" stop-color="#ffe7d8"/>
		</linearGradient>
		<linearGradient id="g16" x2="1" gradientUnits="userSpaceOnUse" gradientTransform="matrix(63.008,0,0,18.056,616.163,186.361)">
			<stop offset="0" stop-color="#590e3b"/>
			<stop offset="1" stop-color="#4d002e"/>
		</linearGradient>
		<linearGradient id="g17" x2="1" gradientUnits="userSpaceOnUse" gradientTransform="matrix(-63.008,0,0,18.056,580.733,186.361)">
			<stop offset="0" stop-color="#590e3b"/>
			<stop offset="1" stop-color="#4d002e"/>
		</linearGradient>
		<linearGradient id="g18" x2="1" gradientUnits="userSpaceOnUse" gradientTransform="matrix(0,22.5,-12.685,0,607.512,261.958)">
			<stop offset="0" stop-color="#ce384c"/>
			<stop offset=".468" stop-color="#cb3748"/>
			<stop offset="1" stop-color="#ab2538"/>
		</linearGradient>
		<linearGradient id="g19" x2="1" gradientUnits="userSpaceOnUse" gradientTransform="matrix(7.526,0,0,1.505,577.341,281.965)">
			<stop offset="0" stop-color="#77254b"/>
			<stop offset="1" stop-color="#8b2542"/>
		</linearGradient>
		<linearGradient id="g20" x2="1" gradientUnits="userSpaceOnUse" gradientTransform="matrix(-7.526,0,0,1.505,619.33,281.965)">
			<stop offset="0" stop-color="#77254b"/>
			<stop offset="1" stop-color="#8b2542"/>
		</linearGradient>
		<linearGradient id="g21" x2="1" gradientUnits="userSpaceOnUse" gradientTransform="matrix(0,17.16,-31.532,0,597.776,261.573)">
			<stop offset="0" stop-color="#ffe9da"/>
			<stop offset="1" stop-color="#ca79ec"/>
		</linearGradient>
		<linearGradient id="g22" x2="1" gradientUnits="userSpaceOnUse" gradientTransform="matrix(0,17.16,-31.532,0,630.427,261.573)">
			<stop offset="0" stop-color="#ffe9da"/>
			<stop offset="1" stop-color="#ca79ec"/>
		</linearGradient>
		<linearGradient id="g23" x2="1" gradientUnits="userSpaceOnUse" gradientTransform="matrix(0,-29.484,-18.278,0,657.294,245.05)">
			<stop offset="0" stop-color="#ebdfff"/>
			<stop offset=".996" stop-color="#bac6f8"/>
		</linearGradient>
		<linearGradient id="g24" x2="1" gradientUnits="userSpaceOnUse" gradientTransform="matrix(0,21.872,21.872,0,630.609,219.236)">
			<stop offset="0" stop-color="#781813"/>
			<stop offset="1" stop-color="#45000a"/>
		</linearGradient>
		<linearGradient id="g25" x2="1" gradientUnits="userSpaceOnUse" gradientTransform="matrix(0,-25.286,-25.286,0,657.79,242.094)">
			<stop offset="0" stop-color="#7d1b00"/>
			<stop offset="1" stop-color="#0b0000"/>
		</linearGradient>
		<linearGradient id="g26" x2="1" gradientUnits="userSpaceOnUse" gradientTransform="matrix(-16.037,0,0,16.037,652.897,223.067)">
			<stop offset="0" stop-color="#caa7db"/>
			<stop offset=".994" stop-color="#8460b8"/>
		</linearGradient>
		<linearGradient id="g27" x2="1" gradientUnits="userSpaceOnUse" gradientTransform="matrix(11.454,0,0,12.771,662.791,234.929)">
			<stop offset="0" stop-color="#9c1f31"/>
			<stop offset="1" stop-color="#9c1f31"/>
		</linearGradient>
		<linearGradient id="g28" x2="1" gradientUnits="userSpaceOnUse" gradientTransform="matrix(0,-29.484,18.278,0,539.603,245.05)">
			<stop offset="0" stop-color="#ebdfff"/>
			<stop offset=".996" stop-color="#bac6f8"/>
		</linearGradient>
		<linearGradient id="g29" x2="1" gradientUnits="userSpaceOnUse" gradientTransform="matrix(0,21.872,-21.872,0,566.287,219.236)">
			<stop offset="0" stop-color="#781813"/>
			<stop offset="1" stop-color="#45000a"/>
		</linearGradient>
		<linearGradient id="g30" x2="1" gradientUnits="userSpaceOnUse" gradientTransform="matrix(0,-25.286,25.286,0,539.107,242.094)">
			<stop offset="0" stop-color="#7d1b00"/>
			<stop offset="1" stop-color="#0b0000"/>
		</linearGradient>
		<linearGradient id="g31" x2="1" gradientUnits="userSpaceOnUse" gradientTransform="matrix(16.037,0,0,16.037,543.999,223.067)">
			<stop offset="0" stop-color="#caa7db"/>
			<stop offset=".994" stop-color="#8460b8"/>
		</linearGradient>
		<linearGradient id="g32" x2="1" gradientUnits="userSpaceOnUse" gradientTransform="matrix(-11.454,0,0,12.771,534.105,234.929)">
			<stop offset="0" stop-color="#9c1f31"/>
			<stop offset="1" stop-color="#9c1f31"/>
		</linearGradient>
		<linearGradient id="g33" x2="1" gradientUnits="userSpaceOnUse" gradientTransform="matrix(-13.055,59.958,-39.768,-8.659,645.21,22.09)">
			<stop offset="0" stop-color="#850e3b"/>
			<stop offset="1" stop-color="#39002e"/>
		</linearGradient>
		<linearGradient id="g34" x2="1" gradientUnits="userSpaceOnUse" gradientTransform="matrix(40.08,72.39,-81.227,47.933,526.474,-155.127)">
			<stop offset="0" stop-color="#850e3b"/>
			<stop offset="1" stop-color="#39002e"/>
		</linearGradient>
		<linearGradient id="g35" x2="1" gradientUnits="userSpaceOnUse" gradientTransform="matrix(-63.687,333.375,-332.989,-63.613,689.904,-59.294)">
			<stop offset="0" stop-color="#850e3b"/>
			<stop offset="1" stop-color="#39002e"/>
		</linearGradient>
		<linearGradient id="g36" x2="1" gradientUnits="userSpaceOnUse" gradientTransform="matrix(10.771,-47.394,37.567,8.538,606.132,144.069)">
			<stop offset="0" stop-color="#850e3b"/>
			<stop offset="1" stop-color="#39002e"/>
		</linearGradient>
		<linearGradient id="g37" x2="1" gradientUnits="userSpaceOnUse" gradientTransform="matrix(-19.948,132.249,-87.644,-13.22,653.897,70.522)">
			<stop offset="0" stop-color="#850e3b"/>
			<stop offset="1" stop-color="#39002e"/>
		</linearGradient>
		<linearGradient id="g38" x2="1" gradientUnits="userSpaceOnUse" gradientTransform="matrix(-24.323,285.111,-175.104,-14.938,641.331,-71.834)">
			<stop offset="0" stop-color="#850e3b"/>
			<stop offset="1" stop-color="#39002e"/>
		</linearGradient>
		<linearGradient id="g39" x2="1" gradientUnits="userSpaceOnUse" gradientTransform="matrix(88.076,-328.879,201.472,53.956,579.723,80.771)">
			<stop offset="0" stop-color="#850e3b"/>
			<stop offset="1" stop-color="#39002e"/>
		</linearGradient>
		<linearGradient id="g40" x2="1" gradientUnits="userSpaceOnUse" gradientTransform="matrix(-19.866,131.707,-76.727,-11.573,641.639,71.344)">
			<stop offset="0" stop-color="#8780e9"/>
			<stop offset="1" stop-color="#ffffff"/>
		</linearGradient>
		<linearGradient id="g41" x2="1" gradientUnits="userSpaceOnUse" gradientTransform="matrix(0,66.121,-50.147,0,650.083,118.659)">
			<stop offset="0" stop-color="#850e3b"/>
			<stop offset="1" stop-color="#39002e"/>
		</linearGradient>
		<linearGradient id="g42" x2="1" gradientUnits="userSpaceOnUse" gradientTransform="matrix(0,-127.885,95.963,0,545.437,228.574)">
			<stop offset="0" stop-color="#8780e9"/>
			<stop offset="1" stop-color="#ffffff"/>
		</linearGradient>
		<linearGradient id="g43" x2="1" gradientUnits="userSpaceOnUse" gradientTransform="matrix(129.393,89.186,-37.299,54.114,476.296,78.901)">
			<stop offset="0" stop-color="#850e3b"/>
			<stop offset="1" stop-color="#39002e"/>
		</linearGradient>
		<linearGradient id="g44" x2="1" gradientUnits="userSpaceOnUse" gradientTransform="matrix(149.53,103.066,-37.973,55.092,447.075,94.737)">
			<stop offset="0" stop-color="#850e3b"/>
			<stop offset="1" stop-color="#39002e"/>
		</linearGradient>
		<linearGradient id="g45" x2="1" gradientUnits="userSpaceOnUse" gradientTransform="matrix(6.314,4.352,-5.603,8.129,602.664,114.463)">
			<stop offset="0" stop-color="#850e3b"/>
			<stop offset="1" stop-color="#39002e"/>
		</linearGradient>
		<linearGradient id="g46" x2="1" gradientUnits="userSpaceOnUse" gradientTransform="matrix(118.492,81.673,-37.355,54.195,485.315,82.625)">
			<stop offset="0" stop-color="#8780e9"/>
			<stop offset="1" stop-color="#ffffff"/>
		</linearGradient>
		<linearGradient id="g47" x2="1" gradientUnits="userSpaceOnUse" gradientTransform="matrix(96.805,66.725,-24.583,35.666,485.03,120.898)">
			<stop offset="0" stop-color="#8780e9"/>
			<stop offset="1" stop-color="#ffffff"/>
		</linearGradient>
	</defs>
	<style>
		.s0 { fill: #ff8ab0 } 
		.s1 { fill: url(#g1) } 
		.s2 { mix-blend-mode: multiply;fill: #cf478b } 
		.s3 { fill: url(#g2) } 
		.s4 { fill: url(#g3) } 
		.s5 { opacity: .9;mix-blend-mode: multiply;fill: url(#g4) } 
		.s6 { opacity: .9;mix-blend-mode: multiply;fill: url(#g5) } 
		.s7 { fill: url(#g6) } 
		.s8 { opacity: .9;mix-blend-mode: multiply;fill: url(#g7) } 
		.s9 { opacity: .9;mix-blend-mode: multiply;fill: url(#g8) } 
		.s10 { fill: url(#g9) } 
		.s11 { opacity: .9;mix-blend-mode: multiply;fill: url(#g10) } 
		.s12 { opacity: .9;mix-blend-mode: multiply;fill: url(#g11) } 
		.s13 { opacity: .3;mix-blend-mode: screen;fill: url(#g12) } 
		.s14 { opacity: .6;mix-blend-mode: multiply;fill: url(#g13) } 
		.s15 { opacity: .6;mix-blend-mode: multiply;fill: url(#g14) } 
		.s16 { opacity: .6;mix-blend-mode: multiply;fill: url(#g15) } 
		.s17 { opacity: .3;mix-blend-mode: soft-light;fill: #ffa4da } 
		.s18 { fill: url(#g16) } 
		.s19 { opacity: .6;mix-blend-mode: multiply;fill: #ce77b5 } 
		.s20 { fill: url(#g17) } 
		.s21 { fill: url(#g18) } 
		.s22 { opacity: .6;mix-blend-mode: multiply;fill: #d177b8 } 
		.s23 { fill: url(#g19) } 
		.s24 { fill: url(#g20) } 
		.s25 { mix-blend-mode: multiply;fill: #df87ec } 
		.s26 { fill: #ffccbc } 
		.s27 { opacity: .6;mix-blend-mode: multiply;fill: url(#g21) } 
		.s28 { opacity: .6;mix-blend-mode: multiply;fill: url(#g22) } 
		.s29 { fill: url(#g23) } 
		.s30 { fill: url(#g24) } 
		.s31 { fill: url(#g25) } 
		.s32 { mix-blend-mode: multiply;fill: url(#g26) } 
		.s33 { fill: #fffbf8 } 
		.s34 { opacity: .3;mix-blend-mode: soft-light;fill: #ffd59e } 
		.s35 { fill: #b11d51 } 
		.s36 { fill: #860a2c } 
		.s37 { fill: url(#g27) } 
		.s38 { fill: #2e031e } 
		.s39 { fill: url(#g28) } 
		.s40 { fill: url(#g29) } 
		.s41 { fill: url(#g30) } 
		.s42 { mix-blend-mode: multiply;fill: url(#g31) } 
		.s43 { fill: url(#g32) } 
		.s44 { fill: url(#g33) } 
		.s45 { fill: url(#g34) } 
		.s46 { fill: url(#g35) } 
		.s47 { fill: url(#g36) } 
		.s48 { fill: url(#g37) } 
		.s49 { fill: url(#g38) } 
		.s50 { fill: url(#g39) } 
		.s51 { mix-blend-mode: multiply;fill: url(#g40) } 
		.s52 { mix-blend-mode: soft-light;fill: #ffd7b9 } 
		.s53 { fill: url(#g41) } 
		.s54 { mix-blend-mode: multiply;fill: url(#g42) } 
		.s55 { fill: url(#g43) } 
		.s56 { fill: url(#g44) } 
		.s57 { fill: url(#g45) } 
		.s58 { mix-blend-mode: multiply;fill: url(#g46) } 
		.s59 { mix-blend-mode: multiply;fill: url(#g47) } 
		.s60 { fill: #b02067 } 
		.s61 { fill: #7a1a42 } 
		.s62 { mix-blend-mode: soft-light;fill: #ffd7ff } 
	</style>
	<g id="Avatar face">
		<g id="&lt;Clip Group&gt;">
			<g id="&lt;Group&gt;">
				<path id="Shape 1" fill-rule="evenodd" class="s0" d="m593 456c-104.5 0-189-87.2-189-195 0-107.8 84.5-195 189-195 104.5 0 189 87.2 189 195 0 107.8-84.5 195-189 195z"/>
				<g id="&lt;Group&gt;">
					<g id="&lt;Group&gt;">
						<g id="&lt;Group&gt;">
							<path id="&lt;Path&gt;" class="s1" d="m630.8 386c-2.6-7.6 0-54.1 0-54.1l-33.8 2.2-33.9-2.2c0 0 2.7 46.5 0 54.1-5.3 15.5-19.1 34.2-51.6 39.9h85.5 85.5c-32.6-5.7-46.4-24.4-51.7-39.9z"/>
							<path id="&lt;Path&gt;" class="s2" d="m563.6 359.7c0 0 29.6 25.5 66.7 14.8l0.5-42.6c0 0-19.5 13.9-67.6 1.9z"/>
							<path id="&lt;Path&gt;" fill-rule="evenodd" class="s3" d="m687.2 427.5l-87 28.5-94.5-25.5c0 0 37.1-25.4 38.1-27.8 2.2-5.6 4.8-8.4 4.8-8.4 8.1 0 8.9 3.6 8.9 3.6 0 0 0.1 20.6 41.2 20.6 26.5 0 40.4-17 40.4-17l-2.1-2.9 4.1-3.1c0 0 6.3 9.1 7.9 10.2 6.6 4.7 38.2 21.8 38.2 21.8z"/>
						</g>
						<g id="&lt;Group&gt;">
							<path id="&lt;Path&gt;" class="s4" d="m514.4 238.9c0 0-8-11.8-17.6-11.8-5.6 0-14.3 3.1-14.2 21.2 0 7.9 20.4 45 39.4 42.9z"/>
							<path id="&lt;Path&gt;" class="s5" d="m488 252.5c0-0.8-4.8-18 6.4-16.2 13.8 2.2 19.7 34.9 19.7 34.9 0 0-1.8-6.3-6.5-7.1-4.6-0.8-3.2 12.6-7.1 9.9-3.8-2.6-5.9-27 0-28.2 0 0-3.8-3.7-7.9-3.3-5.5 0.6-4.6 10-4.6 10z"/>
							<path id="&lt;Path&gt;" class="s6" d="m506 247.5c-5.5-6.8-10.5 2.4-9.1 12.1 1.4 9.8 1.8 15.4 4.9 13.6 3.2-1.9 1.7-10 5.8-9.1 4.2 0.9 6.5 7.9 6.5 7.9 0 0-3.4-18.7-8.1-24.5z"/>
							<path id="&lt;Path&gt;" class="s7" d="m682.5 238.9c0 0 8-11.8 17.6-11.8 5.5 0 14.2 3.1 14.2 21.2 0 7.9-20.4 45-39.4 42.9z"/>
							<path id="&lt;Path&gt;" class="s8" d="m708.9 253.3c0-0.9 4.8-18.1-6.5-16.3-13.7 2.2-19.6 35-19.6 35 0 0 1.8-6.4 6.5-7.2 4.6-0.8 3.2 12.6 7.1 10 3.8-2.7 5.9-27 0-28.2 0 0 3.8-3.7 7.9-3.3 5.4 0.5 4.6 10 4.6 10z"/>
							<path id="&lt;Path&gt;" class="s9" d="m690.9 248.2c5.5-6.8 10.5 2.4 9.1 12.2-1.4 9.7-1.8 15.3-4.9 13.5-3.2-1.8-1.7-9.9-5.8-9.1-4.2 0.9-6.5 7.9-6.5 7.9 0 0 3.4-18.7 8.1-24.5z"/>
						</g>
						<path id="&lt;Path&gt;" class="s10" d="m673.5 305.3c-2.3 7.8-11.7 16.8-24.2 25.3q-3.5 2.4-7.3 4.7 0 0 0 0-3 1.8-6.2 3.6c-18.7 10.6-26.6 13.6-37.2 13.6h-0.3c-10.6 0-18.5-3-37.3-13.6q-4.6-2.6-8.9-5.4 0 0 0 0-2.1-1.3-4.1-2.6c-12.7-8.6-22.2-17.7-24.6-25.6-3.2-10.3-16.1-108.9-14.8-126.3 0.5-7.4 7.7-20.5 19.8-32.9 16.1-16.5 40.8-32.1 69.9-32.2h0.3c31.1 0.1 57.2 17.9 73.1 35.6q0 0 0 0c10.1 11.4 16.1 22.7 16.6 29.5 1.3 17.4-11.6 116-14.8 126.3z"/>
						<path id="&lt;Path&gt;" class="s11" d="m673.5 305.3c-2.3 7.8-11.7 16.8-24.2 25.3 1.8-1.8 20.1-18.2 23.4-38.5 3.5-21.3 3.5-42-2.4-45.2-5.9-3.1-38.8 6.9-43.3-1.4-4.5-22.2-3.5-43.8-1.8-46.4 7.2-10.8 46.4-6 53.6 5.2 0 0 1.3-39.1-7.1-54.8 10.1 11.4 16.1 22.7 16.6 29.5 1.3 17.4-11.6 116-14.8 126.3z"/>
						<path id="&lt;Path&gt;" class="s12" d="m572.2 245.5c-4.5 8.3-37.4-1.7-43.2 1.4-5.9 3.2-6 21.4-2.5 42.7 4.8 29.3 22.3 39.9 23.6 41.1l-2.1 0.2c-12.7-8.6-22.2-17.7-24.6-25.6-3.2-10.3-16.1-108.9-14.8-126.3 0.5-7.4 7.7-20.5 19.8-32.9 0.3 0.7 0 1.8-0.8 3.4-8.4 15.7-7.1 54.8-7.1 54.8 7.2-11.2 46.3-16 53.5-5.2 1.8 2.6 2.8 24.2-1.8 46.4z"/>
						<path id="&lt;Mesh&gt;" class="s13" d="m533.2 294.2c2.6 2.8 5.4 5.2 8.1 6.7 4.9 2.8 9.9 2.9 14.3 1.4-2.3-4.3-6.2-10.9-8-16-7.6 0.6-15.7-1.5-23.4-5.2 2.3 4.6 5.5 9.3 9 13.1zm-9-13.1c7.7 3.7 15.8 5.8 23.4 5.2-1.2-3.2-3-9.4-3.4-12.2-7.5-0.4-15.3-2.5-23.5-3.7 0.4 3.3 1.7 7 3.5 10.7zm-1.3-28.5c-2.2 4.6-2.8 13.9-2.2 17.8 8.2 1.2 16 3.3 23.5 3.7-0.6-4.7-0.4-20.4 3.6-24.1-7.5-1.4-15.1-4.1-21.1-1.7-1.4 0.5-2.6 1.9-3.8 4.3zm32.7 49.7c6.9-2.4 12.2-8.8 13.5-14.8 0.4-2 2.1-3.8 3.5-6.6 0.3-2.3 0.3-4.8 0-7.9-8 6.8-12.7 12.3-25 13.3 1.8 5.1 5.7 11.7 8 16zm-8-16c12.3-1 17-6.5 25-13.3-0.2-1.6-1.6-18-1.7-19.2-8.1 6.3-15.4 20.9-26.7 20.3 0.4 2.8 2.2 9 3.4 12.2zm-3.4-12.2c11.3 0.6 18.6-14 26.7-20.3-0.1-2 0.1-4.5 2.4-5.9-6 3.1-10.6 3.3-19 3-2.1-0.1-4.3-0.4-6.5-0.9-4 3.7-4.2 19.4-3.6 24.1zm28.4 6.8c0.9-1.8 1.7-3.3 2.3-3.7 2.4-1.6 15.4 1.9 23.6 1.6q0.9 0 1.9-0.1c0-3.3-1.1-6.4-1.4-10.5-11 0.4-18.4-1.9-26.4 4.8 0.3 3.1 0.3 5.6 0 7.9zm0-7.9c8-6.7 15.4-4.4 26.4-4.8-0.1-3.3-0.4-17.5-0.6-20.5-10.7 0.1-19-0.5-27.5 6.1 0.1 1.2 1.5 17.6 1.7 19.2zm-1.7-19.2c8.5-6.6 16.8-6 27.5-6.1-0.2-3.7 0.4-8 0.3-11.7q-0.3 0-0.3 0c0 0-8.5 0.3-18.5 7.6-2.5 1.8-4.6 3.2-6.6 4.3-2.3 1.4-2.5 3.9-2.4 5.9zm29.5 24.9c7.4-0.7 16.3-3.3 20.1-0.9 0.4 0.3 1.2 1.2 2.1 2.5 0.4-2.6 1.3-3.8 1.1-7.3-6.6-6.6-16.3-5.2-24.7-4.8 0.3 4.1 1.4 7.2 1.4 10.5zm-1.4-10.5c8.4-0.4 18.1-1.8 24.7 4.8-0.1-2.6 0.4-18.8 0.1-20.8-7.3-5.9-16.1-4.6-25.4-4.5 0.2 3 0.5 17.2 0.6 20.5zm-0.6-20.5c9.3-0.1 18.1-1.4 25.4 4.5-0.4-2.6-1.5-4.6-3.6-6.4q-1.5-1-3.2-2.2c-9-6.6-16.9-7.5-18.3-7.6 0.1 3.7-0.5 8-0.3 11.7zm24.2 32.6c1.6 2.2 4.1 3.2 5.2 7.2 1.9 6.3 7.7 13 15 15.1 2.5-4.4 6.9-10.7 8.5-16-14.1 0-19.5-5.5-27.6-13.6 0.2 3.5-0.7 4.7-1.1 7.3zm1.1-7.3c8.1 8.1 13.5 13.6 27.6 13.6 1.2-3.4 2.6-9.3 3-12.3-13.5 1.4-21.1-14.6-30.5-22.1 0.3 2-0.2 18.2-0.1 20.8zm0.1-20.8c9.4 7.5 17 23.5 30.5 22.1 0.5-4.9 0.4-20.7-3.7-24.6-2.7 0.6-5.4 1.1-8 1.2-10 0.4-14.6 0.1-22.4-5.1 2.1 1.8 3.2 3.8 3.6 6.4zm19 50.4c3.9 1.1 8.3 0.8 12.8-1.7 2.7-1.5 5.5-3.9 8.1-6.7 3.5-3.8 6.7-8.5 8.9-13.1-6.9 3.3-14.3 5.5-21.3 5.5-1.6 5.3-6 11.6-8.5 16zm8.5-16c7 0 14.4-2.2 21.3-5.5 1.9-3.7 3.1-7.4 3.6-10.7-7.6 1-14.8 3.2-21.9 3.9-0.4 3-1.8 8.9-3 12.3zm3-12.3c7.1-0.7 14.3-2.9 21.9-3.9 0.6-3.9 0-13.2-2.2-17.8-1.2-2.4-2.4-3.8-3.8-4.3-5.6-2.2-12.5-0.1-19.6 1.4 4.1 3.9 4.2 19.7 3.7 24.6z"/>
						<path id="&lt;Path&gt;" class="s14" d="m548.6 394.3c4.1 19 32.6 31.6 32.6 31.6 0 0-21 0.2-37.4-23.2z"/>
						<path id="&lt;Path&gt;" class="s15" d="m641.1 395.5c0.6 15.2-8.3 30.4-8.3 30.4h4.2c0 0 8.2-9.5 10.6-21.5z"/>
						<path id="&lt;Path&gt;" class="s16" d="m642 335.3q-3 1.8-6.2 3.6c-18.7 10.6-26.6 13.6-37.2 13.6h-0.3c-10.6 0-18.5-3-37.3-13.6q-4.6-2.6-8.9-5.4c1.3 0.8 28.9 16.5 46.4 16.5 17.5 0 42.7-14.3 43.5-14.7z"/>
						<path id="&lt;Path&gt;" class="s17" d="m581.2 340.5c7.4 16.3 28.3 2.7 32.5-3.2 4.3-5.9-37.6-8.1-32.5 3.2z"/>
					</g>
					<g id="&lt;Group&gt;">
						<g id="&lt;Group&gt;">
							<path id="&lt;Path&gt;" class="s18" d="m679.2 204.3c-0.5-0.5-3.6-3.6-14.9-4.8-4.1-0.4-9.5 0-15.1 0.6-11.4 1.5-23.2 4.3-23.2 4.3 0 0-6.5-2.6-9.8-11h1.2c0 0 3 5.3 6.5 8.1l-4.9-8.1c0 0 7.2-0.2 19.4-1.8 12.2-1.5 21-4.7 21-4.7l-0.7-0.5q0.1 0 0.2 0c1.4 0.5 11.7 4.4 20.3 17.9z"/>
							<path id="&lt;Path&gt;" class="s19" d="m679.2 204.3c-0.5-0.5-3.6-3.6-14.9-4.8-4.1-0.4-9.5 0-15.1 0.6 16.8-4 19-3.9 19-3.9-3.7-7.3-8.4-9.4-9.3-9.8 1.4 0.5 11.7 4.4 20.3 17.9z"/>
						</g>
						<g id="&lt;Group&gt;">
							<path id="&lt;Path&gt;" class="s20" d="m517.7 204.3c0.5-0.5 3.6-3.6 14.9-4.8 4.1-0.4 9.5 0 15 0.6 11.5 1.5 23.3 4.3 23.3 4.3 0 0 6.4-2.6 9.8-11h-1.2c0 0-3 5.3-6.5 8.1l4.9-8.1c0 0-7.2-0.2-19.4-1.8-12.2-1.5-21-4.7-21-4.7l0.7-0.5q-0.1 0-0.2 0c-1.4 0.5-11.7 4.4-20.3 17.9z"/>
							<path id="&lt;Path&gt;" class="s19" d="m517.7 204.3c0.5-0.5 3.6-3.6 14.9-4.8 4.1-0.4 9.5 0 15 0.6-16.7-4-18.9-3.9-18.9-3.9 3.6-7.3 8.4-9.4 9.3-9.8-1.4 0.5-11.7 4.4-20.3 17.9z"/>
						</g>
					</g>
					<g id="&lt;Group&gt;">
						<path id="&lt;Path&gt;" class="s21" d="m626.2 280.2c-1 2.7-11.1 2.1-14.2 3.3-3 1.1-5.4 4.6-13.6 4.6-8.1 0-10.5-3.5-13.5-4.6-3.1-1.2-13.2-0.6-14.2-3.3-2.1-5.4 0.4-9.4 3.3-12 1.5-1.3 3-2.2 4.2-2.9 1.3-0.7 2.6-1.6 3.7-2.6 3.9-3.5 8.6-5.3 12-6.1 3-0.8 6.1-0.8 9.1 0 3.4 0.8 8.1 2.6 12 6.1 1.1 1 2.4 1.9 3.7 2.6 1.2 0.7 2.9 1.7 4.4 3 2.8 2.6 5.1 6.6 3.1 11.9z"/>
						<path id="&lt;Path&gt;" class="s17" d="m602.5 260.4c-7.1 3.9-3.6 18.3 1.3 18.4 5 0.2 9.6-5.5 9.4-8-0.2-2.4-7.3-12.2-10.7-10.4z"/>
						<path id="&lt;Path&gt;" class="s22" d="m626.2 280.2c-1 2.7-11.1 2.1-14.2 3.3-3 1.1-5.4 4.6-13.6 4.6-8.1 0-10.5-3.5-13.5-4.6-3.1-1.2-13.2-0.6-14.2-3.3-2.1-5.4 0.4-9.4 3.3-12-2.8 6.7-1.7 10.9 0 11 1.8 0.1 7.4-1.5 12.2-0.8 4.7 0.8 6.5 1.9 12 1.9 5.5 0 7.3-1.1 12.1-1.9 4.7-0.7 10.3 0.9 12.1 0.8 1.8-0.1 2.9-4.3 0-11l0.7 0.1c2.8 2.6 5.1 6.6 3.1 11.9z"/>
						<path id="&lt;Path&gt;" class="s23" d="m577.3 282.4c4.1-1.5 7.6 1.1 7.6 1.1z"/>
						<path id="&lt;Path&gt;" class="s24" d="m619.3 282.4c-4-1.5-7.5 1.1-7.5 1.1z"/>
						<path id="&lt;Path&gt;" class="s25" d="m571.3 280.9c0 0-0.1-1.4 2.7-1.7 2.8-0.3 7.5-1.9 12.7-0.5 5.1 1.5 9.1 1.8 12.3 1.6 3.1-0.2 10.9-2.7 15.3-2.1 4.3 0.5 6.4 1 8.1 1 1.7 0 3.4 0.7 3.2 1.7-0.2 1-12.4 13.3-27.2 13.3-14.8 0-27.1-13.3-27.1-13.3z"/>
						<path id="&lt;Path&gt;" class="s26" d="m604.5 272.1c-1.3 1.7-0.3 2.8 0 3.4 0.3 0.6 3.9 0.6 4.2 0 0.3-0.6 0.3-3.4 0-3.4-0.3-0.1-3.7-0.8-4.2 0z"/>
						<path id="&lt;Path&gt;" class="s27" d="m577.3 265.8c5 5 1.6 12.8 1.6 12.8 0 0 3.9-0.8 7.8 0.1 0 0-5.2-5.9-4.7-8.6 0.5-2.8 5-5.9 4.7-6.9-0.9-2.8-4-1.2-4-1.2 0 0-1.8 1.8-3.6 2.8-1.8 1-1.8 1-1.8 1z"/>
						<path id="&lt;Path&gt;" class="s28" d="m619.3 265.8c-4.9 5-1.6 12.8-1.6 12.8 0 0-3.8-0.8-7.7 0.1 0 0 5.1-5.9 4.7-8.6-0.5-2.8-5-5.9-4.7-6.9 0.9-2.8 4-1.2 4-1.2 0 0 1.8 1.8 3.5 2.8 1.8 1 1.8 1 1.8 1z"/>
					</g>
					<g id="&lt;Group&gt;">
						<g id="&lt;Group&gt;">
							<path id="&lt;Path&gt;" class="s29" d="m634.4 222.5c5.9-4.5 17.5-6.9 24.4-5 6.9 1.8 12.5 10.7 13.1 13.7 0.6 2.9-5.5 12.7-9.6 14.3-4.1 1.6-28.4-0.7-30.9-0.7-2.4 0-6.1 2.3-6.6 1.2-2-4 3.7-18.9 9.6-23.5z"/>
							<g id="&lt;Clip Group&gt;">
								<g id="&lt;Group&gt;">
									<path id="&lt;Path&gt;" class="s30" d="m630.6 231.1c0 7.9 6.4 14.3 14.3 14.3 7.9 0 14.2-6.4 14.2-14.3 0-7.9-6.3-14.3-14.2-14.3-7.9 0-14.3 6.4-14.3 14.3z"/>
									<path id="&lt;Path&gt;" class="s31" d="m632 231.1c0 7.1 5.7 12.9 12.9 12.9 7.1 0 12.9-5.8 12.9-12.9 0-7.1-5.8-12.9-12.9-12.9-7.2 0-12.9 5.8-12.9 12.9z"/>
									<path id="&lt;Path&gt;" class="s32" d="m636.9 231.1c0 4.4 3.6 8 8 8 4.4 0 8-3.6 8-8 0-4.4-3.6-8-8-8-4.4 0-8 3.6-8 8z"/>
									<path id="&lt;Path&gt;" class="s33" d="m655.4 232.3c1.4 1.2 8.1-1.3 6.7-2.4-1.3-1.2-8.1 1.2-6.7 2.4z"/>
									<path id="&lt;Path&gt;" class="s34" d="m654.8 237.9c0.2 2.7-6.3 6.3-9.9 6.1-5.9-0.3-10.9-4.6-11-7.9-0.2-3.2 2.8-0.8 6.4 1.6 3.5 2.3 7.6 1.6 10.4-0.6 1-0.7 3.9-1.1 4.1 0.8z"/>
								</g>
							</g>
							<path id="&lt;Path&gt;" class="s35" d="m625.6 231.6c0 0-0.3-7.6 4.7-13 5-5.4 14.3-5.6 14.3-5.6 0 0-13.4 1.9-19 18.6z"/>
							<path id="&lt;Path&gt;" class="s36" d="m624.7 240.8c1.5 3.1 6.7 4 6.7 4 0 0-5 2.1-6.6 1.2-1.7-0.9-0.1-5.2-0.1-5.2z"/>
							<path id="&lt;Path&gt;" class="s36" d="m671.1 234.7c-2.3 4.2-10.4 10.8-18.6 11.2q-0.3 0.1-0.7 0.1c-8.4 0 5.8 0.9 10.5-0.5 4.8-1.5 8.8-10.8 8.8-10.8z"/>
							<path id="&lt;Path&gt;" class="s37" d="m673.4 235.4c1.8 5.5 0.6 9.8-1.5 10.9-2.9 1.5-10 1.8-9 0.9 7-6.4 9.7-14.3 10.5-11.8z"/>
							<path id="&lt;Path&gt;" class="s22" d="m671.9 231.2c0 0-10.9-14.8-27.3-10.2-16.3 4.6-19.7 18.9-19.7 18.9 0 0 3.8-19.7 17.6-21.7 13.8-1.9 22-0.3 29.4 13z"/>
							<path id="&lt;Path&gt;" class="s38" d="m671.1 229c0 0-6.7-8.6-14-10.8-7.3-2.1-20.7-0.1-28.1 10.8 0 0 3.3-9.2 13-13.1 12.3-5 22-2.3 25.1-0.9 3 1.4 4 14 4 14z"/>
						</g>
						<g id="&lt;Group&gt;">
							<path id="&lt;Path&gt;" class="s39" d="m562.5 222.5c-5.9-4.5-17.5-6.9-24.4-5-6.9 1.8-12.5 10.7-13.1 13.7-0.6 2.9 5.5 12.7 9.6 14.3 4.1 1.6 28.4-0.7 30.9-0.7 2.4 0 6.1 2.3 6.6 1.2 2-4-3.7-18.9-9.6-23.5z"/>
							<g id="&lt;Clip Group&gt;">
								<g id="&lt;Group&gt;">
									<path id="&lt;Path&gt;" class="s40" d="m566.3 231.1c0 7.9-6.4 14.3-14.3 14.3-7.9 0-14.3-6.4-14.3-14.3 0-7.9 6.4-14.3 14.3-14.3 7.9 0 14.3 6.4 14.3 14.3z"/>
									<path id="&lt;Path&gt;" class="s41" d="m564.9 231.1c0 7.1-5.8 12.9-12.9 12.9-7.1 0-12.9-5.8-12.9-12.9 0-7.1 5.8-12.9 12.9-12.9 7.1 0 12.9 5.8 12.9 12.9z"/>
									<path id="&lt;Path&gt;" class="s42" d="m560 231.1c0 4.4-3.6 8-8 8-4.4 0-8-3.6-8-8 0-4.4 3.6-8 8-8 4.4 0 8 3.6 8 8z"/>
									<path id="&lt;Path&gt;" class="s33" d="m541.5 232.3c-1.4 1.2-8.1-1.3-6.7-2.4 1.3-1.2 8.1 1.2 6.7 2.4z"/>
									<path id="&lt;Path&gt;" class="s34" d="m542.1 237.9c-0.2 2.7 6.3 6.3 9.9 6.1 5.9-0.3 10.9-4.6 11-7.9 0.2-3.2-2.9-0.8-6.4 1.6-3.5 2.3-7.6 1.6-10.4-0.6-1-0.7-3.9-1.1-4.1 0.8z"/>
								</g>
							</g>
							<path id="&lt;Path&gt;" class="s35" d="m571.3 231.6c0 0 0.3-7.6-4.7-13-5-5.4-14.3-5.6-14.3-5.6 0 0 13.4 1.9 19 18.6z"/>
							<path id="&lt;Path&gt;" class="s36" d="m572.2 240.8c-1.5 3.1-6.7 4-6.7 4 0 0 5 2.1 6.6 1.2 1.7-0.9 0.1-5.2 0.1-5.2z"/>
							<path id="&lt;Path&gt;" class="s36" d="m525.8 234.7c2.3 4.2 10.4 10.8 18.6 11.2q0.3 0.1 0.7 0.1c8.4 0-5.8 0.9-10.5-0.5-4.8-1.5-8.8-10.8-8.8-10.8z"/>
							<path id="&lt;Path&gt;" class="s43" d="m523.5 235.4c-1.8 5.5-0.6 9.8 1.5 10.9 2.9 1.5 10 1.8 9 0.9-7-6.4-9.7-14.3-10.5-11.8z"/>
							<path id="&lt;Path&gt;" class="s22" d="m525 231.2c0 0 10.9-14.8 27.3-10.2 16.3 4.6 19.7 18.9 19.7 18.9 0 0-3.8-19.7-17.6-21.7-13.8-1.9-22-0.3-29.4 13z"/>
							<path id="&lt;Path&gt;" class="s38" d="m525.8 229c0 0 6.7-8.6 14-10.8 7.3-2.1 20.7-0.1 28.1 10.8 0 0-3.3-9.2-13-13.1-12.3-5-22-2.3-25.1-0.9-3 1.4-4 14-4 14z"/>
						</g>
					</g>
					<g id="&lt;Group&gt;">
						<g id="&lt;Group&gt;">
							<path id="&lt;Path&gt;" class="s44" d="m585.8 104.8c8.6 7.2 20.9 15.6 25.6 28.7 12.3-0.4 24.6-0.2 36.9-0.4-9-35.5-40.1-70.7-62.7-63.3-24.6 8-34.9 35.5-34.9 35.5l8.5 7.3c0 0 12.7-19.5 26.6-7.8z"/>
							<path id="&lt;Path&gt;" class="s45" d="m528.2 151.1c0 0-11.9-87 1.6-95.5 13.5-8.5 64.4-19.4 64.4-19.4l28.4 20.6c0 0-27.5-6-41.6-1-14.1 5-41.9 95.3-41.9 95.3z"/>
							<path id="&lt;Path&gt;" class="s46" d="m532.2 148.9c0 0-2.2-77.7 27.7-95.9 5.5-3.3 32-21.7 51.1-22.1 19-0.3 39.3 39.4 39.3 39.4 0 0-24.8-4.9-43.3-6.7-18.5-1.8-63 81.1-63 81.1z"/>
							<path id="&lt;Path&gt;" class="s47" d="m612.7 55.6c37.4-5.4 52.4-1.6 62.1 4.5 9.6 6.1 14.7 28.5 13.7 32.7-1 4.1-21.2 20.4-21.2 20.4l-3.4-20.4c0 0 12.2-3.3 15.9-7.2 3.7-3.8-5-14.1-12.3-14.4-3.1-0.1-29.2 8.1-29.2 8.1z"/>
							<path id="&lt;Path&gt;" class="s48" d="m645.9 98.7c4 4.1 11.4 27.4 6.7 50.5 4.8-0.1 13.1 2.1 17.9 1.9 14.4-18 17-39.8-2.4-60.9-8.1-8.8-34.4-44.2-72.7-31.5-73.2 24.4-55 88.3-55 88.3l13.2 0.1-4.3-26.6c0 0 17.4-11.1 28-19.8 10.6-8.8 56.5-14.3 68.6-2z"/>
							<path id="&lt;Path&gt;" class="s49" d="m618.1 116.1c1.2 1.4 13.2 21.9 14.4 25.3 5.3 0 15.4 4.1 20.7 4 0.9-0.1 4.3-7 5.2-7 2.8-76.8-59.7-65.1-76-58.5-43.3 17.5-40.6 59.3-35.9 61.5l19.9-18.6c18.9-12.1 43.7-16.6 51.7-6.7z"/>
							<path id="&lt;Path&gt;" class="s50" d="m626.6 101.2c3.1 0.8 14.1 21.6 14.6 41.6 2.5 0 7.8-1.7 9.5 0 8.5 8.4 4.2 6.2 10.5 6.1 4-21.1-13.7-51.5-17.8-55.2-20.8-18.7-27.8-19.9-44.9-12.2-44.8 20.3-54.6 62.8-54.6 62.8l37-4.1c0 0 25.3-44.5 45.7-39z"/>
							<path id="&lt;Path&gt;" class="s51" d="m670.5 151.1c-4.8 0.2-13.1-2-17.9-1.9q0.3-1.9 0.6-3.8c-5.3 0.1-15.4-4-20.7-4-1.2-3.4-13.2-23.9-14.4-25.3-2.9-3.6-8.1-5.3-14.4-5.4-12.6 11.7-22.8 29.5-22.8 29.5l-25.8 2.8-1.5 4.1-9.1-3.5q-0.5 1-0.5 1.1l-4.5 5.2q-0.4 1.2-0.4 1.2h-10.9c0 0-10.2-74.5-1-92.4-2.9 11.7 5 22.6 9.7 18.8 4.6-3.7 15.3-17.6 16.1-18.7-0.6 0.9-6.1 9.3-3.8 13.8 2.4 4.9 15 2.4 15 2.4 0 0-3.8 3.4-5.7 11.4-0.7 3.1 14.5-1.9 14.5-1.9 0 0 20.1-10.9 42.5-9.1 0 0-14.3 3.3-24.3 9.7 0 0-3.6 11.6 3.2 12.3 3.5 0.4 21.1-5.1 29.2-3.7 0 0 16.4 2.1 17.6-2 0 0-9.9-8-9.9-12.3 8.1 2.5 19.5 5.6 23.4 4.6 6.3-1.7-11.4-17.3-11.8-17.8l1 0.8c11.1 7.4 20.7 19.4 24.2 23.2 19.4 21.1 16.8 42.9 2.4 60.9z"/>
							<path id="&lt;Path&gt;" class="s52" d="m579.6 41.3c0 0 14.7-0.1 13.9 11-0.3 4.7-6.4 9.5-6.4 9.5 0 0 7.4-3.7 14.1-4.7 0 0 7.6-5.6 5.9-13.1-1.6-7.5-8.9-10.7-8.9-10.7z"/>
							<path id="&lt;Path&gt;" class="s52" d="m583 63.6c0 0 18.7-0.9 21.7 11.4 0 0 4.9-0.5 10.8 0.4 0 0-1.8-18.7-20.1-16.7z"/>
							<path id="&lt;Path&gt;" class="s52" d="m607.4 78.1c0 0 5.4-1.6 8.9-1 0 0 8.9 4 10.7 9.7 1.7 5.7-2 7-2 7l-4.9-0.1c0 0 2.5-3.9 0.6-8.3-3.3-7.5-13.3-7.3-13.3-7.3z"/>
						</g>
						<path id="&lt;Path&gt;" class="s53" d="m687.1 233.2c-1.4 8.7-5.1 15.4-5.1 15.4 0 0-2.5-27.2-2.8-31.8-0.4-4.6 0-25.3 0-25.3l-4.5 1.1c0 0-2.5-1-5.6-6.2-3.1-5.2-3.9-8.2-3.9-8.2l1.7-5.6-4 1.4c-4.6-2.3-12.1-14.5-12.1-14.5l0.9-8.9-3.2 5.8c0 0-3.3 0.8-6.1 0.6-12.2-0.9-16.9-10.8-16.9-10.8l1.6-3.9-3.1 1.9c-3.2 2.5-17.8 2.9-22.9 0.9-5.1-2.1-6.9-4.7-6.9-4.7 0 0-1.1 3.4-8.6 3.2-7.5-0.2-8.9-1.9-8.9-1.9 0 0-1.9 4.3-5.7 4.5-3.7 0.1-6.2-1.1-6.4-1.1 0.1 0.1 0.9 3.3-6.5 6.1-7.7 2.9-11.7 2.1-11.7 2.1-17.1 4.6-24.3 14.3-24.3 14.3l5.5 3.8c-4.9 0-10.5 5.8-10.5 5.8h3.8c-5.9 26.2-5.8 78.1-5.8 78.1l-6.6-22.1c0 0-1.8-43.4-2.9-46.3-1.1-2.9 0.9-16.2 1.4-18.5 0.4-1.8 3.7-4.9 5.3-6.3 0.6-0.6 1-0.9 1-0.9 0 0 0.1-2.1 0-3.7-0.2-1.5 8.5-12.1 12.7-15q0.9-0.6 2.1-1.2c2.1-1 4.8-1.7 7.1-2.3 2.7-0.6 4.8-1 4.8-1 0 0-4-1.7-3.8-2.7 0.2-0.9 12.2-10.6 15.5-10.4 1.5 0.1 4.2 0.8 6.6 1.5 2.6 0.8 4.9 1.5 5.1 1.6-0.1-0.2-1.5-2.9-1.9-3.5-0.3-0.6 6.4-7.3 9.3-7.3 1.5 0 4 1.2 6 2.3 2 1.1 3.5 2.1 3.5 2.1 0 0 1.5-2.5 3.2-4 0.6-0.6 1.3-1 1.9-1.2 2.4-0.6 14-1 18.6 0 1 0.2 1.5 0.5 1.8 0.8 0.8 0.8-0.7 1.7-1.5 2.1q0 0.1-0.1 0.1l0.1-0.1 4.1-1.9q0.4-0.1 0.9-0.1c9.8-0.6 25 6.9 26.4 8 1.4 1.1 0.4 2.9 0.4 3.1l2.7-1.9c0 0 11.7 4.2 13.7 5.5 2 1.4 2.2 7 2.2 7 0 0 1.1-1.9 2.3-2.3 1.3-0.4 9 2.5 11.7 6.2 1.7 2.3 3.3 5.6 4.1 7.7 0.5 1.2 0.8 1.9 0.8 1.9l2.2-1.1c5.9 1.5 11.9 13.9 11.9 13.9 2.8 0.2 0.9 59.2-0.6 67.9z"/>
						<path id="&lt;Path&gt;" class="s54" d="m687.1 233.2c-1.4 8.7-5.1 15.4-5.1 15.4 0 0-2.5-27.2-2.8-31.8-0.4-4.6 0-25.3 0-25.3l-4.5 1.1c0 0-2.5-1-5.6-6.2-3.1-5.2-3.9-8.2-3.9-8.2l1.7-5.6-4 1.4c-4.6-2.3-12.1-14.5-12.1-14.5l0.9-8.9-3.2 5.8c0 0-3.3 0.8-6.1 0.6-12.2-0.9-16.9-10.8-16.9-10.8l1.6-3.9-3.1 1.9c-3.2 2.5-17.8 2.9-22.9 0.9-5.1-2.1-6.9-4.7-6.9-4.7 0 0-1.1 3.4-8.6 3.2-7.5-0.2-8.9-1.9-8.9-1.9 0 0-1.9 4.3-5.7 4.5-3.7 0.1-6.2-1.1-6.4-1.1 0.1 0.1 0.9 3.3-6.5 6.1-7.7 2.9-11.7 2.1-11.7 2.1-17.1 4.6-24.3 14.3-24.3 14.3l5.5 3.8c-4.9 0-10.5 5.8-10.5 5.8h3.8c-5.9 26.2-5.8 78.1-5.8 78.1l-6.6-22.1c0 0-1.8-43.4-2.9-46.3-1.1-2.9 0.9-16.2 1.4-18.5 0.4-1.8 3.7-4.9 5.3-6.3 1.9 0.3 3.8 0.5 5.5 0.5 5.8-0.2 22.6-8.5 22.2-9.8-0.2-0.8-7-7-11.9-11.5 2.1-1 4.8-1.7 7.1-2.3 3.8 4.9 9.1 11.7 11.6 12.2 4 0.8 13.9-1.6 15.7-6.1 1.9-4.6-3.3-18.1-3.3-18.1l-0.9-0.6c2.6 0.8 4.9 1.5 5.1 1.6 0 0 1.2 12.2 1.6 14.2 0.4 2 6 3 10-1.1 4-4.1 1.8-21.6 1.8-21.6 2 1.1 3.5 2.1 3.5 2.1 0 0 1.5-2.5 3.2-4 0 0-5 19.9-3 20.4 2 0.6 6.4 0.4 10.2-1.7 3-1.6 10.4-12.3 13.6-17l4.1-1.9q0.4-0.1 0.9-0.1v0.3c0 0-11 18.3-10.9 21 0 2.7 17.1 5.8 22.8 4.3 5.7-1.6 15.3-15.9 14.5-17.6 1.4 1.1 0.4 2.9 0.4 3.1l2.7-1.9c-0.5 0.9-10.4 17.1-11.1 19.7-0.7 2.5 14.7 10.8 19.9 6.6 5.1-4.2 4.9-20.8 4.9-20.8 2 1.4 2.2 7 2.2 7 0 0 1.1-1.9 2.3-2.3-0.9 0.9-3.8 19.5-3.8 22 0 2.5 8.5 14.5 12.2 12 3.7-2.6 7.4-20.1 7.4-20.1 0.5 1.2 0.8 1.9 0.8 1.9l2.2-1.1c-2.1 5-8 24.3-8.7 26.3-0.8 1.9 8.2 12.9 10 12.9 1.8 0 9.7-9.6 10.6-25.3 2.8 0.2 0.9 59.2-0.6 67.9z"/>
						<path id="&lt;Path&gt;" class="s55" d="m564.6 145.1c0 0-1.4 5.1-8.8 5.1-5.5 0-8.2-3.7-34.3-12.5-6.5-2.2-18.7-5.1-26.9-8.2-5.4-2.1-9-4.3-7.8-6.4 2.7-4.8 36.1-6.6 45.1-4.9q0.4 0.1 0.8 0.2c19.8 5.2 31.9 26.7 31.9 26.7z"/>
						<path id="&lt;Path&gt;" class="s56" d="m552.8 152.8c0 0-25.6 13.1-34.9 15.4-5.7 1.5-24.4 5-24.4 3.1 0-1.1-1.2-5-0.4-9.2 0.7-3.7 2.9-7.7 8.8-10.1 3.1-1.3 6.4-1.9 9.8-2.2 13.1-0.9 27.5 4.2 34.7 3.5z"/>
						<path id="&lt;Path&gt;" class="s57" d="m604.3 119.3c0.9-1.3 1.5-2.1 1.5-2.1 0.8 0.8-0.7 1.7-1.5 2.1z"/>
						<path id="&lt;Path&gt;" class="s58" d="m564.6 145.1c0 0-1.4 5.1-8.8 5.1-5.5 0-8.2-3.7-34.3-12.5-6.5-2.2-18.7-5.1-26.9-8.2 31 5.6 44.4 5.1 45.9 1.9 1.5-3.2-9.3-12.1-9.3-12.1 0 0 0.3-0.4 0.7-1.1q0.4 0.1 0.8 0.2c19.8 5.2 31.9 26.7 31.9 26.7z"/>
						<path id="&lt;Path&gt;" class="s59" d="m552.8 152.8c0 0-25.6 13.1-34.9 15.4-5.7 1.5-24.4 5-24.4 3.1 0-1.1-1.2-5-0.4-9.2 1.8 0.2 8 3.4 19.2 0 11.9-3.6 8.2-8-1.9-11.5l1.3-0.8c13.1-0.9 27.5 4.2 34.7 3.5z"/>
					</g>
					<g id="&lt;Group&gt;">
						<path id="&lt;Path&gt;" class="s2" d="m572.2 311.3c0 0 9.3 21.8 26.2 21.8 17 0 24.9-20.2 24.9-20.2z"/>
						<path id="&lt;Path&gt;" class="s60" d="m567.4 302.6c0 0 9.1 24 31.6 24 22.6 0 29.4-24.2 29.4-24.2 0 0-18.8 3.1-23.7 5-4.9 1.9-9.3 0-13.6-1.3-4.4-1.2-23.7-3.5-23.7-3.5z"/>
						<path id="&lt;Path&gt;" class="s61" d="m617.4 299.3c-7.8-3.2-12.9-2.2-18.4-2.2-5.4 0-10.6-1-18.3 2.2-7.7 3.2-11.9 3-11.9 3 5.4 2.2 11.3 2.8 15.1 2.8 3.8 0.1 15.1 2.3 15.1 2.3 0 0 11.4-2.2 15.2-2.3 3.7 0 9.7-0.6 15.1-2.8 0 0-4.2 0.2-11.9-3z"/>
						<path id="&lt;Path&gt;" class="s38" d="m628.4 302.4c-7.8 2.5-11.5 1.1-19.1 3-7.6 1.8-13.1 1.8-20.7 0-7.6-1.9-13.1 0-20.7-3.5-1-0.5-2.6-1.5-2.6-1.5v1.7c0 0 10.5 2.9 18.1 3.3 7.6 0.4 10.3 4.5 15.6 4.5 5.2 0 7.9-4.1 15.5-4.5 7.6-0.4 17.1-3.3 17.1-3.3v-1.7c0 0-2.1 1.7-3.2 2z"/>
						<path id="&lt;Path&gt;" class="s62" d="m615.3 306.1l5.4 1.4-3.8 3.9-3.3-2.7z"/>
						<path id="&lt;Path&gt;" class="s62" d="m612 310.3l2.1 2.1c0 0-1.7-1.1-3.5 0.7-1.1 1.1-5.8 1.5-7.7 2.7l-1.3-2.2c0 0 5.6 0.4 10.4-3.3z"/>
					</g>
				</g>
			</g>
		</g>
	</g>
</svg>